HIERARCHY
ROOT hip
{
	OFFSET 0.000000 0.000000 0.000000 
	CHANNELS 6 Xposition Yposition Zposition Xrotation Zrotation Yrotation
	JOINT abdomen
	{
		OFFSET 0.000000 3.402643 0.000000 
		CHANNELS 3 Xrotation Zrotation Yrotation
		JOINT chest
		{
			OFFSET 0.000000 8.438565 -0.680529 
			CHANNELS 3 Xrotation Zrotation Yrotation
			JOINT neck
			{
				OFFSET 0.000000 10.207942 -0.272212 
				CHANNELS 3 Xrotation Zrotation Yrotation
				JOINT head
				{
					OFFSET 0.000000 3.130431 0.000000 
					CHANNELS 3 Xrotation Zrotation Yrotation
					End Site
					{
						OFFSET 0.000000 3.130435 0.000000 
					}
				}
			}
			JOINT lCollar
			{
				OFFSET 3.470700 6.669187 -0.816635 
				CHANNELS 3 Yrotation Zrotation Xrotation
				JOINT lShldr
				{
					OFFSET 3.198488 0.000000 0.000000 
					CHANNELS 3 Zrotation Yrotation Xrotation
					JOINT lForeArm
					{
						OFFSET 10.139888 0.000000 0.000000 
						CHANNELS 3 Yrotation Zrotation Xrotation
						JOINT lHand
						{
							OFFSET 8.370511 0.000000 0.000000 
							CHANNELS 3 Zrotation Yrotation Xrotation
							End Site
							{
								OFFSET 4.083176 0.000000 0.000000 
							}
						}
					}
				}
			}
			JOINT rCollar
			{
				OFFSET -3.470700 6.669187 -0.816635 
				CHANNELS 3 Yrotation Zrotation Xrotation
				JOINT rShldr
				{
					OFFSET -3.198488 0.000000 0.000000 
					CHANNELS 3 Zrotation Yrotation Xrotation
					JOINT rForeArm
					{
						OFFSET -10.139888 0.000000 0.000000 
						CHANNELS 3 Yrotation Zrotation Xrotation
						JOINT rHand
						{
							OFFSET -8.370511 0.000000 0.000000 
							CHANNELS 3 Zrotation Yrotation Xrotation
							End Site
							{
								OFFSET -4.083176 0.000000 0.000000 
							}
						}
					}
				}
			}
		}
	}
	JOINT lThigh
	{
		OFFSET 5.308129 -1.633274 1.361059 
		CHANNELS 3 Xrotation Zrotation Yrotation
		JOINT lShin
		{
			OFFSET -2.041588 -20.007561 0.000000 
			CHANNELS 3 Xrotation Zrotation Yrotation
			JOINT lFoot
			{
				OFFSET 0.000000 -19.190928 -1.224953 
				CHANNELS 3 Xrotation Yrotation Zrotation
				End Site
				{
					OFFSET 0.000000 -2.449906 4.627600 
				}
			}
		}
	}
	JOINT rThigh
	{
		OFFSET -5.308129 -1.633274 1.361059 
		CHANNELS 3 Xrotation Zrotation Yrotation
		JOINT rShin
		{
			OFFSET 2.041588 -20.007561 0.000000 
			CHANNELS 3 Xrotation Zrotation Yrotation
			JOINT rFoot
			{
				OFFSET 0.000000 -19.190928 -1.224953 
				CHANNELS 3 Xrotation Yrotation Zrotation
				End Site
				{
					OFFSET 0.000000 -2.449906 4.627600 
				}
			}
		}
	}
}
MOTION
Frames: 11
Frame Time: 0.033333
0.081923 14.221789 0.081923 -4.700731 -1.801749 -26.420431 -0.019531 0.000000 -0.019531 13.832561 13.765214 -17.731203 -8.544920 -0.009766 -0.009767 20.012276 18.814224 44.359772 1.992188 -2.001953 0.000341 -6.087655 -60.108505 -49.790302 -51.849216 -0.579560 8.592135 -60.424397 -32.220959 -136.868942 -2.001953 1.992188 0.000000 134.566467 39.093739 75.429382 65.504974 0.504767 8.727016 -1.333449 -38.057079 -25.683086 -119.856842 40.085930 -15.657148 118.928391 4.399778 -3.511804 -2.629644 6.623816 3.027067 -16.560162 -34.245937 12.594419 120.159927 -4.576978 3.419249 -29.278378 22.245440 38.360176 
0.081923 13.510530 0.081923 -4.844026 -1.891944 -27.301289 -0.019531 0.000000 -0.019531 13.500300 14.175791 -18.349861 -8.544920 -0.009766 -0.009767 20.381182 18.418037 44.995682 1.992188 -2.001953 0.000341 -5.397187 -59.162247 -50.916779 -53.757607 -0.566715 8.611080 -60.085644 -30.485193 -138.866898 -2.001953 1.992188 0.000000 135.416321 39.632778 75.622818 65.421349 0.507754 8.727433 1.154268 -37.954525 -27.108416 -123.702522 40.642120 -17.811628 119.250374 4.419175 -3.516670 -0.388941 6.916658 3.927090 -19.565329 -35.581448 14.991867 122.879486 -4.724884 3.302446 -24.969633 24.884089 38.050755 
0.081923 12.799281 0.081923 -4.974777 -1.997076 -28.192625 -0.019531 0.000000 -0.019531 13.168232 14.581801 -18.971750 -8.544920 -0.009766 -0.009767 20.765827 18.020699 45.638561 1.992188 -2.001953 0.000341 -4.730704 -58.198383 -52.016918 -55.682087 -0.554078 8.630339 -59.828037 -28.728411 -140.805161 -2.001953 1.992188 0.000000 136.264389 40.182758 75.830177 65.337692 0.510772 8.727773 3.625635 -37.801414 -28.516159 -127.587799 41.074203 -19.981178 119.563339 4.430363 -3.506450 1.861833 7.224982 4.797708 -22.719015 -36.821960 17.521288 125.590813 -4.890500 3.155606 -20.571779 27.502499 37.540291 
0.081923 13.016241 0.081923 -5.053840 -2.054696 -28.770403 -0.019531 0.000000 -0.019531 12.948848 14.835089 -19.381351 -8.544920 -0.009766 -0.009767 21.005951 17.762739 46.049110 1.992188 -2.001953 0.000341 -10.747054 -56.798164 -46.088524 -63.897709 -0.526576 8.709686 -57.142693 -24.721302 -145.162659 -2.001953 1.992188 0.000000 129.257492 38.819035 71.169952 72.870590 0.497782 8.804564 5.542964 -38.953941 -29.762276 -126.974060 42.243679 -19.900766 118.889275 4.390122 -3.518090 1.614308 7.227994 5.087505 -23.853031 -37.291920 17.889114 125.277351 -4.878748 3.175111 -16.934206 28.527237 36.356136 
0.081923 13.233184 0.081923 -5.141400 -2.111351 -29.348213 -0.019531 0.000000 -0.019531 12.719477 15.094642 -19.800692 -8.544920 -0.009766 -0.009767 21.245569 17.498924 46.454300 1.992188 -2.001953 0.000341 -16.218353 -55.085102 -40.700001 -72.113487 -0.518369 8.791351 -54.879341 -20.531635 -149.189209 -2.001953 1.992188 0.000000 122.554962 37.039635 66.843216 80.404526 0.503245 8.880208 7.525616 -40.070194 -31.088459 -126.327354 43.427479 -19.786491 118.195129 4.342387 -3.549457 1.381516 7.246552 5.362105 -25.015987 -37.741684 18.323450 124.973518 -4.831659 3.212013 -13.223991 29.478022 35.075520 
0.081923 13.298055 0.081923 -5.193976 -2.147485 -29.652128 -0.019531 0.000000 -0.019531 12.598440 15.232312 -20.016445 -8.544920 -0.009766 -0.009767 21.373594 17.351446 46.673458 1.992188 -2.001953 0.000341 -17.901516 -53.976440 -39.288486 -73.839783 -0.514078 8.813696 -54.862019 -19.759005 -148.998764 -2.001953 1.992188 0.000000 121.703682 36.555202 66.629044 79.923012 0.495337 8.875013 7.142875 -38.196510 -31.012331 -126.265388 43.963570 -19.999596 118.244316 4.341280 -3.541708 1.069387 7.252095 5.430944 -24.675121 -37.937614 18.235659 124.210365 -4.792714 3.241494 -12.607278 29.861235 34.904499 
0.081923 13.362921 0.081923 -5.240882 -2.191550 -29.965816 -0.019531 0.000000 -0.019531 12.476261 15.369388 -20.234871 -8.544920 -0.009766 -0.009767 21.508202 17.210981 46.895725 1.992188 -2.001953 0.000341 -19.490902 -52.837929 -37.991631 -75.566963 -0.500479 8.833919 -54.839828 -19.000431 -148.803619 -2.001953 1.992188 0.000000 120.861191 36.065533 66.429207 79.439140 0.496852 8.871835 6.761784 -36.321182 -30.944012 -126.210327 44.508511 -20.207399 118.283165 4.333815 -3.553297 0.746411 7.255947 5.531275 -24.363155 -38.123714 18.143122 123.447144 -4.772145 3.265979 -11.954227 30.230326 34.728428 
0.081923 13.421070 0.081923 -5.251784 -2.197846 -30.063751 -0.019531 0.000000 -0.019531 12.436472 15.417679 -20.310829 -8.544920 -0.009766 -0.009767 21.545612 17.174089 46.969765 1.992188 -2.001953 0.000341 -20.669060 -52.275974 -36.832054 -76.986900 -0.512936 8.843784 -54.711872 -18.287813 -148.603668 -2.001953 1.992188 0.000000 119.581528 35.451084 65.919975 79.767754 0.502427 8.878391 6.128381 -34.906715 -30.697636 -126.014229 44.703609 -20.202194 118.322578 4.342382 -3.539490 0.495641 7.246894 5.507094 -23.631800 -37.978107 17.740276 122.644501 -4.713516 3.316453 -12.777018 30.188446 34.985775 
0.081923 13.479219 0.081923 -5.262660 -2.204119 -30.161686 -0.019531 0.000000 -0.019531 12.399230 15.466859 -20.377430 -8.544920 -0.009766 -0.009767 21.585239 17.130550 47.040939 1.992188 -2.001953 0.000341 -21.820749 -51.701363 -35.699642 -78.401047 -0.514971 8.854947 -54.573132 -17.578936 -148.413895 -2.001953 1.992188 0.000000 118.320992 34.835468 65.425392 80.099861 0.498812 8.881743 5.510877 -33.493473 -30.476229 -125.822495 44.919525 -20.168758 118.371071 4.360837 -3.538362 0.236422 7.240586 5.483449 -22.918114 -37.840401 17.347155 121.842163 -4.656448 3.360636 -13.586165 30.148312 35.240295 
0.081923 13.535138 0.081923 -5.251034 -2.197413 -30.083261 -0.019531 0.000000 -0.019531 12.436472 15.417679 -20.310829 -8.544920 -0.009766 -0.009767 21.553659 17.161537 46.987560 1.992188 -2.001953 0.000341 -22.694342 -51.593475 -34.590149 -79.586609 -0.508985 8.865419 -54.336933 -16.890656 -148.232361 -2.001953 1.992188 0.000000 116.714478 34.101292 64.676826 81.043831 0.503482 8.891591 4.684590 -32.409458 -30.103001 -125.509071 44.860641 -20.013763 118.419945 4.360835 -3.538271 0.021142 7.208376 5.394855 -22.063475 -37.631264 16.797955 121.148148 -4.627298 3.371676 -14.838914 29.885489 35.624016 
0.081923 13.591055 0.081923 -5.239388 -2.190689 -30.004837 -0.019531 0.000000 -0.019531 12.467412 15.376648 -20.256201 -8.544920 -0.009766 -0.009767 21.516853 17.202147 46.925297 1.992188 -2.001953 0.000341 -23.571318 -51.479198 -33.488590 -80.769302 -0.502582 8.878798 -54.104553 -16.199442 -148.042664 -2.001953 1.992188 0.000000 115.127785 33.345825 63.961739 81.992447 0.508951 8.896048 3.864923 -31.323538 -29.735567 -125.213799 44.814129 -19.857178 118.468842 4.360829 -3.538186 -0.189812 7.169234 5.282693 -21.225126 -37.407616 16.271818 120.444077 -4.597987 3.390940 -16.093239 29.612196 36.031437 
